Coordinates
version=1
nRows=24
nColumns=24
inDegrees=yes

Units are S.I. units (second, meters, Newtons, ...)
Angles are in degrees.

endheader
time	pelvis_tilt	pelvis_list	pelvis_rotation	pelvis_tx	pelvis_ty	pelvis_tz	hip_flexion_r	hip_adduction_r	hip_rotation_r	knee_angle_r	ankle_angle_r	subtalar_angle_r	mtp_angle_r	hip_flexion_l	hip_adduction_l	hip_rotation_l	knee_angle_l	ankle_angle_l	subtalar_angle_l	mtp_angle_l	lumbar_extension	lumbar_bending	lumbar_rotation
      1.06216667	     -8.54803932	     -0.21876154	     -6.21083967	      0.01215214	      1.02865067	      0.34387285	     -7.14257080	      2.52365776	      1.99110156	    -11.16499556	     19.80535134	      2.50280607	      3.27525850	     35.73642106	     -3.88067193	     -5.40368995	     -3.82050855	     11.22186223	      5.88714324	      0.70616229	     -6.10765896	      4.54678850	      5.57540552
      1.06633333	     -8.63666465	     -0.24417681	     -6.28500109	      0.01831459	      1.02748025	      0.34361502	     -7.26624354	      2.46998165	      1.91928124	    -11.46769707	     19.82611310	      2.80119362	      3.39580186	     35.84815963	     -3.83198353	     -5.29182331	     -4.23506790	     11.14302952	      5.81383033	      0.70302843	     -5.96347653	      4.50713920	      5.59023107
      1.07050000	     -8.66010070	     -0.25356163	     -6.36147044	      0.02450572	      1.02646154	      0.34339407	     -7.47856558	      2.39919476	      1.94173544	    -11.72696773	     19.75152336	      2.88610620	      3.42555097	     35.88654703	     -3.76803844	     -5.20801915	     -4.68370190	     11.03530101	      5.75861377	      0.70341080	     -5.90911509	      4.45016986	      5.58988075
      1.07466667	     -8.74217109	     -0.25635630	     -6.43300329	      0.03073983	      1.02535154	      0.34309883	     -7.56819347	      2.30780604	      1.75386415	    -12.11657257	     19.79894204	      3.35046421	      3.65746979	     35.98108459	     -3.69446894	     -5.05046274	     -5.15399762	     10.89143877	      5.64676303	      0.73144429	     -5.73746353	      4.39628244	      5.59366273
      1.07883333	     -8.79581476	     -0.25580763	     -6.49487502	      0.03698527	      1.02432975	      0.34281150	     -7.70147459	      2.21591519	      1.63336401	    -12.47347330	     19.74153658	      3.66005029	      3.99603428	     36.04494508	     -3.61199628	     -4.85994874	     -5.65084887	     10.69946317	      5.52681284	      0.79213161	     -5.62460820	      4.32283929	      5.58337492
      1.08300000	     -8.83275391	     -0.25389703	     -6.55358318	      0.04326758	      1.02340060	      0.34255906	     -7.86549757	      2.13030083	      1.59195354	    -12.80045696	     19.54332435	      3.76185921	      4.09069544	     36.09246844	     -3.53287465	     -4.69826499	     -6.17865968	     10.47388125	      5.50417816	      0.81076201	     -5.52836273	      4.23842151	      5.58257228
      1.08716667	     -8.90009410	     -0.22801420	     -6.60945271	      0.04956600	      1.02244017	      0.34225556	     -7.96274053	      2.00879746	      1.46798793	    -13.18616465	     19.37434916	      4.02720286	      7.64790181	     36.15487916	     -3.42215215	     -4.40882527	     -6.68552883	     10.11470443	      5.22884290	      1.71883166	     -5.39245781	      4.12340800	      5.55034604
      1.09133333	     -8.95131501	     -0.21258778	     -6.64475379	      0.05589124	      1.02154715	      0.34194628	     -8.08108293	      1.90409795	      1.35559511	    -13.57504890	     19.19726213	      4.27518833	      7.69171374	     36.23756213	     -3.32484980	     -4.22864958	     -7.28789642	      9.82748511	      5.25868092	      1.72769034	     -5.28042697	      4.01524223	      5.53665219
      1.09550000	     -9.01126283	     -0.17632875	     -6.68677662	      0.06222918	      1.02068405	      0.34162680	     -8.15780619	      1.77042213	      1.19913234	    -14.02429498	     19.05622988	      4.58078523	      7.80546790	     36.33035371	     -3.21193679	     -4.03482551	     -7.90819934	      9.46714005	      5.14290436	      1.75618592	     -5.14182814	      3.89421030	      5.50128464
      1.09966667	     -9.07533016	     -0.13430424	     -6.71823838	      0.06859382	      1.01988347	      0.34130280	     -8.22863857	      1.63443403	      1.07421952	    -14.46749690	     18.79948107	      4.82903696	      7.92671793	     36.42247529	     -3.09244009	     -3.80989010	     -8.52519611	      9.04965129	      5.05687366	      1.78628154	     -5.00547271	      3.74228659	      5.47170231
      1.10383333	     -9.13054363	     -0.08361416	     -6.74448791	      0.07494336	      1.01912173	      0.34093589	     -8.27078512	      1.47949018	      0.87824406	    -14.98880378	     18.61393082	      5.15481076	      8.18110629	     36.52719110	     -2.96223922	     -3.58166596	     -9.19632289	      8.61377020	      4.84276691	      1.84983205	     -4.87373889	      3.60525314	      5.41625998
      1.10800000	     -9.16731155	     -0.01060290	     -6.76133138	      0.08133117	      1.01848864	      0.34059041	     -8.33673317	      1.30657984	      0.74573018	    -15.48034307	     18.24481796	      5.27694278	     11.12070941	     36.58712509	     -2.80473055	     -3.29129400	     -9.81550294	      8.04454374	      4.52661520	      2.59030439	     -4.76830723	      3.40252773	      5.36466501
      1.11216667	     -9.23208192	      0.03381360	     -6.77309806	      0.08770389	      1.01782516	      0.34019116	     -8.33867057	      1.15703482	      0.54879923	    -16.04887413	     17.92628817	      5.61587375	     11.20913231	     36.75179259	     -2.69535023	     -3.16738072	    -10.60981845	      7.66872774	      4.51744129	      2.59886041	     -4.62929519	      3.26741260	      5.32253241
      1.11633333	     -9.29247333	      0.10316667	     -6.78415456	      0.09408452	      1.01724411	      0.33979264	     -8.31761689	      0.97854077	      0.35235779	    -16.66239492	     17.59082737	      5.91983442	     11.37937781	     36.89867370	     -2.56086016	     -2.99499212	    -11.37883951	      7.21049496	      4.36066995	      2.61291080	     -4.49528269	      3.08665394	      5.26487341
      1.12050000	     -9.33414915	      0.18210779	     -6.78574013	      0.10047000	      1.01674654	      0.33937104	     -8.29299122	      0.78455975	      0.14039929	    -17.31629355	     17.22041001	      6.23327666	     11.65222180	     37.03508295	     -2.41484630	     -2.82363582	    -12.17226391	      6.75917554	      4.17218240	      2.63214680	     -4.38672620	      2.88857675	      5.19880052
      1.12466667	     -9.36991666	      0.27705552	     -6.79719057	      0.10687453	      1.01636214	      0.33897618	     -8.25912284	      0.57367210	     -0.01489938	    -17.97653647	     16.69043344	      6.38943729	     14.94508787	     37.15132097	     -2.26025224	     -2.63213179	    -12.94537892	      6.25280047	      3.86086030	      2.86719756	     -4.28159268	      2.66115812	      5.12936311
      1.12883333	     -9.41149999	      0.33975472	     -6.77818579	      0.11325967	      1.01596582	      0.33850458	     -8.18849621	      0.39281158	     -0.24746017	    -18.71058190	     16.24046406	      6.70888632	     15.02839534	     37.33894777	     -2.13952047	     -2.55285533	    -13.86465941	      5.93207915	      3.84519194	      2.86197038	     -4.18005966	      2.48556162	      5.08940529
      1.13300000	     -9.43479019	      0.43095718	     -6.78346321	      0.11963018	      1.01569332	      0.33804713	     -8.08928698	      0.16759862	     -0.47034494	    -19.52027898	     15.75187498	      7.05792313	     15.32252417	     37.47773013	     -1.99932054	     -2.44230306	    -14.72865496	      5.57099980	      3.68131401	      2.84465114	     -4.10981264	      2.27289286	      5.02233066
      1.13716667	     -9.48418688	      0.52009924	     -6.76140774	      0.12603974	      1.01541459	      0.33756270	     -7.95383052	     -0.04597851	     -0.68447625	    -20.34551997	     15.23327666	      7.32938857	     15.55354086	     37.66862228	     -1.85896195	     -2.37117827	    -15.65204259	      5.25594630	      3.56959517	      2.82625248	     -3.97993431	      2.05288616	      4.97033598
      1.14133333	     -9.51194443	      0.61743019	     -6.74600502	      0.13244010	      1.01524968	      0.33708182	     -7.80557028	     -0.27786935	     -0.89484013	    -21.22315911	     14.63898778	      7.64475137	     15.81945289	     37.82002798	     -1.71416425	     -2.29847699	    -16.54782147	      4.96851517	      3.46276403	      2.80087798	     -3.89180555	      1.80986251	      4.91773662
      1.14550000	     -9.52697116	      0.71657519	     -6.73592309	      0.13880420	      1.01513805	      0.33656370	     -7.62086885	     -0.52703611	     -1.14281664	    -22.19255487	     14.09209655	      7.98660880	     16.26311796	     37.96238396	     -1.57072372	     -2.25144825	    -17.46019496	      4.72899234	      3.33966930	      2.75569998	     -3.82380184	      1.59672043	      4.86543879
      1.14966667	     -9.48622260	      0.82493860	     -6.71280023	      0.14517868	      1.01520514	      0.33605481	     -7.49046862	     -0.78564309	     -1.34330493	    -23.13817118	     13.30996157	      8.15064262	     20.97528414	     38.01863130	     -1.40377697	     -2.17961595	    -18.32187058	      4.53636664	      3.19613246	      2.23567859	     -3.83598894	      1.32386389	      4.81254750
      1.15383333	     -9.49256547	      0.90224187	     -6.69869767	      0.15151504	      1.01522344	      0.33553659	     -7.26407214	     -1.01201004	     -1.53462475	    -24.18021731	     12.62401625	      8.44692587	     21.03162656	     38.13904031	     -1.28932551	     -2.18606782	    -19.21882441	      4.36711354	      3.20113725	      2.22245226	     -3.78795303	      1.12866090	      4.77794138
      1.15800000	     -9.47777879	      0.99837617	     -6.67477279	      0.15784008	      1.01532163	      0.33499368	     -7.02466669	     -1.26661886	     -1.74204334	    -25.27941899	     11.92774641	      8.74399218	     21.13602997	     38.21122926	     -1.14470201	     -2.18014422	    -20.06132650	      4.23086246	      3.16840903	      2.19878363	     -3.76628127	      0.89789462	      4.73853952
